#N canvas 359 278 1483 951 12;
#N canvas 0 50 450 250 (subpatch) 0;
#X array \$0-pitches 12 float 3;
#A 0 0 5 9 5 9 5 0 7 8 9 10 11;
#X coords 0 0 12 12 204 149 1 0 0;
#X restore 463 275 graph;
#X floatatom 416 169 5 0 0 0 - - - 0;
#X msg 316 211 tempo \$1 permin;
#X msg 255 281 0;
#X obj 217 312 f;
#X obj 261 314 + 1;
#X obj 218 386 array get \$0-pitches;
#X floatatom 343 424 5 0 0 0 - - - 0;
#X obj 397 129 select 1;
#X obj 268 191 bng 19 250 50 0 empty empty empty 0 -10 0 12 #fcfcfc #000000 #000000;
#X obj 235 245 metro;
#X obj 485 149 expr $f1*$f2;
#X obj 573 112 t b f;
#X obj 219 350 %;
#X obj 416 59 inlet;
#X obj 506 58 inlet;
#X obj 575 57 inlet;
#X text 503 38 BPM;
#X text 576 32 modulo;
#X obj 217 458 outlet;
#X obj 636 189 array set \$0-pitches;
#X obj 642 61 inlet;
#X text 642 37 array content;
#X text 411 37 impulse;
#X connect 1 0 2 0;
#X connect 2 0 10 0;
#X connect 3 0 4 1;
#X connect 4 0 5 0;
#X connect 4 0 13 0;
#X connect 5 0 4 1;
#X connect 6 0 7 0;
#X connect 6 0 19 0;
#X connect 8 0 9 0;
#X connect 9 0 3 0;
#X connect 9 0 10 0;
#X connect 10 0 4 0;
#X connect 11 0 1 0;
#X connect 12 0 11 0;
#X connect 12 1 11 1;
#X connect 12 1 13 1;
#X connect 13 0 6 0;
#X connect 14 0 8 0;
#X connect 15 0 11 0;
#X connect 16 0 12 0;
#X connect 21 0 20 0;
