#N canvas 146 281 1874 1038 12;
#X declare -lib zexy;
#X obj 80 301 phasor~;
#X obj 86 521 *~;
#X obj 1358 200 noise~;
#X obj 1358 236 *~ 0.5;
#X obj 1410 371 hip~;
#X obj 1505 163 bng 19 250 50 0 empty empty empty 0 -10 0 12 #fcfcfc #000000 #000000;
#X obj 1594 226 bng 19 250 50 0 empty empty empty 0 -10 0 12 #fcfcfc #000000 #000000;
#X obj 1679 279 bng 19 250 50 0 empty empty empty 0 -10 0 12 #fcfcfc #000000 #000000;
#X obj 1679 248 delay 100;
#X obj 1360 369 lop~;
#X obj 1366 434 *~;
#X obj 1407 306 *~ 1;
#X obj 1280 206 tgl 19 0 x empty empty 0 -10 0 12 #fcfcfc #000000 #000000 0 1;
#X obj 1431 277 tgl 19 0 empty empty empty 0 -10 0 12 #fcfcfc #000000 #000000 0 1;
#X obj 1360 304 *~ 1;
#X obj 1308 303 *~ 1;
#X obj 1251 281 tgl 19 0 empty empty empty 0 -10 0 12 #fcfcfc #000000 #000000 0 1;
#X obj 1736 199 +;
#X obj 1509 300 pack 0 0;
#X msg 1512 369 1 \$2;
#X obj 1592 190 delay;
#X msg 1592 313 0.5 \$2;
#X obj 1596 275 pack 0 0;
#X msg 1664 380 0 \$2;
#X obj 1683 312 pack 0 0;
#X obj 1520 411 line;
#X obj 74 443 *~;
#X obj 78 332 expr~ if($v1 > 0.5 \, 1- $v1 \, $v1);
#X obj 75 399 -~ 1;
#X obj 493 475 *~;
#X obj 488 389 *~;
#X obj 493 265 osc~;
#X obj 493 301 expr~ if($v1 > $v2 \, 1 \, -1);
#X obj 903 487 *~;
#X msg 129 776 tempo \$1 permin;
#X obj 72 768 tgl 19 0 empty empty empty 0 -10 0 12 #fcfcfc #000000 #000000 0 1;
#X msg 190 812 0;
#X obj 135 849 f;
#X obj 192 851 + 1;
#N canvas 0 50 450 250 (subpatch) 0;
#X array \$1-ch1 8 float 3;
#A 0 0 0 0 0 0 0 0 0;
#X coords 0 1 8 -1 200 140 1 0 0;
#X restore 278 803 graph;
#X obj 134 875 % 8;
#X obj 132 1003 send ch1;
#X obj 132 905 array get \$1-ch1;
#N canvas 0 50 450 250 (subpatch) 0;
#X array \$2-ch2 8 float 3;
#A 0 0 0 0 0 0 0 0 0;
#X coords 0 1 8 -1 200 140 1 0 0;
#X restore 674 807 graph;
#X obj 516 801 array get \$2-ch2;
#N canvas 0 50 450 250 (subpatch) 0;
#X array \$4-ch4 8 float 3;
#A 0 0 0 0 0 0 0 0 0;
#X coords 0 1 8 -1 200 140 1 0 0;
#X restore 1497 801 graph;
#N canvas 0 50 450 250 (subpatch) 0;
#X array \$3-ch3 8 float 3;
#A 0 0 0 0 0 0 0 0 0;
#X coords 0 1 8 -1 200 140 1 0 0;
#X restore 1096 806 graph;
#X obj 923 844 array get \$3-ch3;
#X obj 1352 840 array get \$4-ch4;
#X obj 514 915 send ch2;
#X obj 920 965 send ch3;
#X obj 1348 949 send ch4;
#X obj 132 820 metro;
#X obj 1505 126 select 1;
#X obj 1504 94 receive ch4;
#X obj 1284 464 *~;
#X obj 693 352 receive ch2;
#X obj 253 403 receive ch1;
#X text 1460 465 amp;
#X text 936 488 amp;
#X text 460 476 amp;
#X obj 692 581 +~;
#X obj 690 685 dac~;
#X obj 692 611 *~;
#X text 830 574 master amp;
#X obj 81 263 mtof;
#X obj 495 232 mtof, f 5;
#X obj 80 229 expr $f1 + $f2;
#X obj 202 200 t b f;
#X obj 2974 87 route values;
#X obj 2977 54 route noise;
#X obj 2900 301 symbol2list;
#X obj 2898 332 array set \$4-ch4;
#X obj 3021 296 symbol2list;
#X obj 146 692 route tempo start stop;
#X obj 202 165 bb_effects;
#X obj 88 135 receive ch1;
#X obj 146 660 receive Py;
#X text 53 522 amp;
#X obj 829 594 receive Py;
#X obj 807 625 route master_vol;
#X obj 500 205 expr $f1 + $f2;
#X obj 563 167 t b f;
#X obj 551 136 bb_effects;
#X obj 466 101 receive ch2;
#X obj 2923 270 send vol4;
#X obj 1369 466 receive vol4;
#X obj 68 716 send BPM;
#X obj 154 106 receive BPM;
#X obj 125 374 receive BPM;
#X obj 104 490 receive vol1;
#X obj 2048 19 netreceive -u -b 9999;
#X obj 2050 56 oscparse;
#X obj 2049 94 list trim;
#X obj 2050 135 send Py;
#X obj 2236 82 route values;
#X obj 2237 51 route triangle;
#X obj 2303 144 symbol2list;
#X obj 2237 20 receive Py;
#X obj 2305 176 send effects1;
#X obj 2209 147 send modulo1;
#X obj 2249 240 route triangle;
#X obj 2246 273 route values;
#X obj 2240 467 array set \$1-ch1;
#X obj 2242 434 symbol2list;
#X obj 2252 212 receive Py;
#X obj 2266 407 send vol1;
#X obj 2294 379 send note1;
#X obj 2350 345 send length1;
#X obj 217 375 receive length1;
#X obj 82 183 receive note1;
#X obj 256 107 receive modulo1;
#X obj 282 135 receive effects1;
#X obj 2460 85 route values;
#X obj 2527 147 symbol2list;
#X obj 2461 23 receive Py;
#X obj 2466 267 route values;
#X obj 2467 457 symbol2list;
#X obj 2472 206 receive Py;
#X obj 2461 54 route square1;
#X obj 2434 143 send modulo2;
#X obj 2529 179 send effects2;
#X obj 2469 234 route square1;
#X obj 2570 339 send length2;
#X obj 2545 372 send duty2;
#X obj 2519 402 send note2;
#X obj 2491 430 send vol2;
#X obj 2465 490 array set \$2-ch2;
#X obj 509 448 receive vol2;
#X obj 639 325 receive length2;
#X obj 533 342 receive BPM;
#X obj 540 66 receive BPM;
#X obj 637 76 receive modulo2;
#X obj 668 110 receive effects2;
#X obj 444 167 receive note2;
#X obj 673 266 receive duty2;
#X obj 2713 85 route values;
#X obj 2780 147 symbol2list;
#X obj 2714 23 receive Py;
#X obj 2686 269 route values;
#X obj 2687 459 symbol2list;
#X obj 2692 208 receive Py;
#X obj 2714 54 route square2;
#X obj 2782 179 send effects3;
#X obj 2687 143 send modulo3;
#X obj 2689 236 route square2;
#X obj 2790 341 send length3;
#X obj 2765 374 send duty3;
#X obj 2739 404 send note3;
#X obj 2711 432 send vol3;
#X obj 2685 492 array set \$3-ch3;
#X obj 890 385 *~;
#X obj 895 261 osc~;
#X obj 895 297 expr~ if($v1 > $v2 \, 1 \, -1);
#X obj 897 228 mtof, f 5;
#X obj 902 201 expr $f1 + $f2;
#X obj 965 163 t b f;
#X obj 953 132 bb_effects;
#X obj 935 338 receive BPM;
#X obj 942 62 receive BPM;
#X obj 941 443 receive vol3;
#X obj 868 97 receive ch3;
#X obj 1039 72 receive modulo3;
#X obj 1070 106 receive effects3;
#X obj 846 163 receive note3;
#X obj 1075 262 receive duty3;
#X obj 1041 321 receive length3;
#X obj 1095 348 receive ch3;
#X obj 2979 23 receive Py;
#X obj 3042 267 send fg;
#X obj 3058 238 send A;
#X obj 3079 211 send D;
#X obj 3100 181 send S;
#X obj 3122 157 send R;
#X obj 3112 372 send hp;
#X obj 3051 371 send lp;
#X obj 2980 373 send not;
#X obj 1771 250 receive R;
#X obj 1767 145 receive S;
#X obj 1681 130 receive D;
#X obj 1572 132 receive A;
#X obj 1430 336 receive fg;
#X obj 1224 250 receive not;
#X obj 1277 179 receive lp;
#X obj 1432 246 receive hp;
#X obj 2236 116 unpack f s;
#X obj 2460 119 unpack f s;
#X obj 2713 119 unpack f s;
#X obj 2973 129 unpack s f s f f f f f;
#X obj 2681 299 unpack s f f f f;
#X obj 2461 297 unpack s f f f f;
#X obj 2241 303 unpack s f f f f;
#X obj 686 650 limiter2~;
#X obj 2044 210 declare -lib zexy;
#X obj 3023 328 unpack f f f;
#X obj 923 877 t b f;
#X obj 924 923 < 0;
#X obj 516 837 t b f;
#X obj 512 867 < 0;
#X obj 1353 867 t b f;
#X obj 1354 913 < 0;
#X obj 136 942 t b f;
#X obj 144 975 < 0;
#X floatatom 517 957 5 0 0 0 - - - 0;
#X obj 38 909 send metre;
#X obj 517 766 receive metre;
#X obj 924 809 receive metre;
#X obj 1353 805 receive metre;
#X obj 170 424 rhythm;
#X obj 611 374 rhythm;
#X obj 1013 370 rhythm;
#X text 70 65 Ch1: Triangle;
#X text 451 29 Ch2: Square 1;
#X text 853 25 Ch3: Square 2;
#X text 1440 62 Ch4: Noise;
#X obj 77 366 *~ 30;
#X connect 0 0 27 0;
#X connect 1 0 61 0;
#X connect 2 0 3 0;
#X connect 3 0 11 0;
#X connect 3 0 14 0;
#X connect 3 0 15 0;
#X connect 4 0 10 0;
#X connect 5 0 18 0;
#X connect 5 0 20 0;
#X connect 6 0 8 0;
#X connect 6 0 22 0;
#X connect 7 0 24 0;
#X connect 8 0 7 0;
#X connect 9 0 10 0;
#X connect 10 0 55 0;
#X connect 11 0 4 0;
#X connect 12 0 14 1;
#X connect 13 0 11 1;
#X connect 14 0 9 0;
#X connect 15 0 10 0;
#X connect 16 0 15 1;
#X connect 17 0 8 1;
#X connect 18 0 19 0;
#X connect 19 0 25 0;
#X connect 20 0 6 0;
#X connect 21 0 25 0;
#X connect 22 0 21 0;
#X connect 23 0 25 0;
#X connect 24 0 23 0;
#X connect 25 0 10 1;
#X connect 26 0 1 0;
#X connect 27 0 215 0;
#X connect 28 0 26 0;
#X connect 29 0 61 0;
#X connect 30 0 29 0;
#X connect 31 0 32 0;
#X connect 32 0 30 0;
#X connect 33 0 61 1;
#X connect 34 0 52 0;
#X connect 35 0 36 0;
#X connect 35 0 52 0;
#X connect 36 0 37 1;
#X connect 37 0 38 0;
#X connect 37 0 40 0;
#X connect 38 0 37 1;
#X connect 40 0 42 0;
#X connect 40 0 204 0;
#X connect 42 0 201 0;
#X connect 44 0 197 0;
#X connect 47 0 195 0;
#X connect 48 0 199 0;
#X connect 52 0 37 0;
#X connect 53 0 5 0;
#X connect 54 0 53 0;
#X connect 55 0 61 1;
#X connect 56 0 209 2;
#X connect 57 0 208 2;
#X connect 61 0 63 0;
#X connect 63 0 192 0;
#X connect 63 0 192 1;
#X connect 65 0 0 0;
#X connect 66 0 31 0;
#X connect 67 0 65 0;
#X connect 68 0 67 0;
#X connect 68 1 67 1;
#X connect 69 0 188 0;
#X connect 70 0 69 0;
#X connect 71 0 72 0;
#X connect 73 0 194 0;
#X connect 74 0 87 0;
#X connect 74 0 34 0;
#X connect 74 1 35 0;
#X connect 74 2 35 0;
#X connect 75 0 68 0;
#X connect 76 0 75 0;
#X connect 77 0 74 0;
#X connect 79 0 80 0;
#X connect 80 0 63 1;
#X connect 81 0 66 0;
#X connect 82 0 81 0;
#X connect 82 1 81 1;
#X connect 83 0 82 0;
#X connect 84 0 83 0;
#X connect 86 0 55 1;
#X connect 88 0 75 1;
#X connect 89 0 208 0;
#X connect 90 0 1 1;
#X connect 91 0 92 0;
#X connect 92 0 93 0;
#X connect 93 0 94 0;
#X connect 95 0 185 0;
#X connect 96 0 95 0;
#X connect 97 0 99 0;
#X connect 98 0 96 0;
#X connect 101 0 102 0;
#X connect 102 0 191 0;
#X connect 104 0 103 0;
#X connect 105 0 101 0;
#X connect 109 0 208 1;
#X connect 110 0 67 0;
#X connect 111 0 75 2;
#X connect 112 0 75 3;
#X connect 113 0 186 0;
#X connect 114 0 121 0;
#X connect 115 0 119 0;
#X connect 116 0 190 0;
#X connect 117 0 127 0;
#X connect 118 0 122 0;
#X connect 119 0 113 0;
#X connect 122 0 116 0;
#X connect 128 0 29 1;
#X connect 129 0 209 1;
#X connect 130 0 209 0;
#X connect 131 0 83 1;
#X connect 132 0 83 2;
#X connect 133 0 83 3;
#X connect 134 0 81 0;
#X connect 135 0 32 1;
#X connect 136 0 187 0;
#X connect 137 0 143 0;
#X connect 138 0 142 0;
#X connect 139 0 189 0;
#X connect 140 0 150 0;
#X connect 141 0 145 0;
#X connect 142 0 136 0;
#X connect 145 0 139 0;
#X connect 151 0 33 0;
#X connect 152 0 153 0;
#X connect 153 0 151 0;
#X connect 154 0 152 0;
#X connect 155 0 154 0;
#X connect 156 0 155 0;
#X connect 156 1 155 1;
#X connect 157 0 156 0;
#X connect 158 0 210 0;
#X connect 159 0 157 1;
#X connect 160 0 33 1;
#X connect 161 0 157 0;
#X connect 162 0 157 2;
#X connect 163 0 157 3;
#X connect 164 0 155 0;
#X connect 165 0 153 1;
#X connect 166 0 210 1;
#X connect 167 0 210 2;
#X connect 168 0 70 0;
#X connect 177 0 24 1;
#X connect 178 0 17 0;
#X connect 179 0 17 0;
#X connect 179 0 22 1;
#X connect 180 0 18 1;
#X connect 180 0 20 1;
#X connect 180 0 17 0;
#X connect 181 0 4 1;
#X connect 181 0 9 1;
#X connect 182 0 16 0;
#X connect 183 0 12 0;
#X connect 184 0 13 0;
#X connect 185 0 100 0;
#X connect 185 1 97 0;
#X connect 186 0 120 0;
#X connect 186 1 114 0;
#X connect 187 0 144 0;
#X connect 187 1 137 0;
#X connect 188 0 71 0;
#X connect 188 1 85 0;
#X connect 188 2 73 0;
#X connect 188 3 169 0;
#X connect 188 4 170 0;
#X connect 188 5 171 0;
#X connect 188 6 172 0;
#X connect 188 7 173 0;
#X connect 189 0 140 0;
#X connect 189 1 149 0;
#X connect 189 2 148 0;
#X connect 189 3 147 0;
#X connect 189 4 146 0;
#X connect 190 0 117 0;
#X connect 190 1 126 0;
#X connect 190 2 125 0;
#X connect 190 3 124 0;
#X connect 190 4 123 0;
#X connect 191 0 104 0;
#X connect 191 1 106 0;
#X connect 191 2 107 0;
#X connect 191 4 108 0;
#X connect 192 0 62 0;
#X connect 192 1 62 1;
#X connect 194 0 176 0;
#X connect 194 1 175 0;
#X connect 194 2 174 0;
#X connect 195 0 196 0;
#X connect 195 1 196 1;
#X connect 196 0 50 0;
#X connect 197 0 198 0;
#X connect 197 1 198 1;
#X connect 198 0 49 0;
#X connect 198 0 203 0;
#X connect 199 0 200 0;
#X connect 199 1 200 1;
#X connect 200 0 51 0;
#X connect 201 0 202 0;
#X connect 201 1 202 1;
#X connect 202 0 41 0;
#X connect 205 0 44 0;
#X connect 206 0 47 0;
#X connect 207 0 48 0;
#X connect 208 0 26 1;
#X connect 209 0 30 1;
#X connect 210 0 151 1;
#X connect 215 0 28 0;
