#N canvas 70 413 412 367 12;
#X declare -lib zexy;
#X obj 146 114 inlet~;
#X obj 146 269 *~;
#X obj 146 294 outlet~;
#X obj 206 114 inlet~;
#X obj 206 269 *~;
#X obj 206 294 outlet~;
#X obj 149 59 declare -lib zexy;
#X obj 223 194 *~ 1;
#X obj 224 162 limiter~ 0 1;
#X obj 205 227 z~ 64;
#X obj 145 227 z~ 64;
#X connect 0 0 8 0;
#X connect 0 0 10 0;
#X connect 1 0 2 0;
#X connect 3 0 8 1;
#X connect 3 0 9 0;
#X connect 4 0 5 0;
#X connect 7 0 1 1;
#X connect 7 0 4 1;
#X connect 8 0 7 0;
#X connect 9 0 4 0;
#X connect 10 0 1 0;
