#N canvas 1225 330 2160 1316 12;
#X obj 190 235 delay;
#X obj 223 185 bng 19 250 50 0 empty empty empty 0 -10 0 12 #fcfcfc #000000 #000000;
#X msg 186 262 0;
#X msg 101 228 1;
#X floatatom 108 295 5 0 0 0 - - - 0;
#X floatatom 193 71 5 0 0 0 - - - 0;
#X obj 197 116 select 1;
#X floatatom 27 183 5 0 0 0 - - - 0;
#X obj 52 87 t f;
#X obj 32 126 expr (60000/$f1)*$f2;
#X obj 145 349 outlet;
#X obj 191 32 inlet;
#X obj 42 28 inlet;
#X obj 122 27 inlet;
#X obj 113 75 t b f;
#X connect 0 0 2 0;
#X connect 1 0 0 0;
#X connect 1 0 3 0;
#X connect 2 0 4 0;
#X connect 3 0 4 0;
#X connect 4 0 10 0;
#X connect 5 0 6 0;
#X connect 6 0 1 0;
#X connect 8 0 9 0;
#X connect 9 0 7 0;
#X connect 9 0 0 1;
#X connect 11 0 5 0;
#X connect 12 0 8 0;
#X connect 13 0 14 0;
#X connect 14 0 9 0;
#X connect 14 1 9 1;
